<svg xmlns="http://www.w3.org/2000/svg" viewBox="0 0 245.64 120.94"><defs><style>.cls-1{fill:#6db749;fill-rule:evenodd;}</style></defs><title>Asset 5</title><g id="Layer_2" data-name="Layer 2"><g id="_1" data-name="1"><path class="cls-1" d="M114,2.47c-4.62,0-1.92-.85-3.81-.85-1.2,0-.85,1.77-.85,2.54a8,8,0,0,0-5.62,2.2c-2.18,1.83-1.57,3.14-1.57,5,0,.79-1.3,2.41-1.69,3A6.76,6.76,0,0,0,99,19c0,2.34,1.69,2,1.69,3,0,.77-.67.85-1.27.85-3.05,0-1.65-1.19-2.87-2.43-1.9-1.93-5.9.37-8.61-2.38-4.94-5-3.57-1.15-9-4.8-2.1-1.42-5.31-.43-7.09-1.17S70.48,9.87,67.7,9.87c-2.46,0-2.78,2.46-6.16,1.73-1.42-.31-3.09-1.43-3.57.39-2.59,0-2.55-.49-4.4,1.53-1.16,1.27-1.63,2.7-3.64,2.7-.08.87-.21.47-.21,1.27a8.19,8.19,0,0,0,.63,2.11c-.9-.07-2-1.2-2.64.53-.29.8.1,1.25-.41,1.93-.33.44-.65.33-1.1,1s-1.05,3.09.34,3.09c3.07,0,2.36-2.23,5.54.39.6.5.66.88,1.44,1.09a3.64,3.64,0,0,1-.63,1.69c-2-.16-1.7,0-3.21,1.66-1.18,1.33-2,1.33-4,1.3-3.28,0-1.63,1.05-2.69,2.6-.84,1.23-2.49.5-4.07,1.43-2.53,1.49-4.22,4.46-7.38,5.74-2.29.92-7.72,3.26-3.06,5.54,1.22.6,4.47,2.26,5.76,2.22,2-.06,1.86-.48,3-1.23a4.62,4.62,0,0,1,2.54,3.59c0,.35-1.38.87-.84,3.17,2.33,0,1.75.36,3.11,1.75,2.08,2.11,6.82.59,7.25.58a3.11,3.11,0,0,0,.78,1.55c.64.63,2.88,2.36,3.69,1.24.47-.65-.1-1.57.42-2.55.15-.26,1-1.28,1.19-1.56,1.72-2,2.3-.33,3.49-1.8,1.77-2.2.16-4.35.16-5.55s2.54-2.23,2.54-1.27c0,1.88-1.66,1.68.27,4A7,7,0,0,0,63,52.82c3.45,2.63,1,3.42,1.27,6.34,2.49,0,1.07,1.42,3.39,1.5a14.6,14.6,0,0,1,2-.06c2.32.69-.08,3.44-.27,4.27a1.51,1.51,0,0,0,1.48.85c1.93,0,2.2-1.19,3-2.33a3.35,3.35,0,0,1,1.66.89c1,.88.41.7.82,1.93a14.51,14.51,0,0,0,1,1.76c2,4,2.92,3.17,7.16,3.65,1.58.18,1.6-.4,2.29-.4s.53.85,2.54.85c-.77,3.28-7.83,2-7.83,5.92,0,1.34,1.72,1.72-.83,1.7-1.6,0-2.83.42-4.46.42-.82,0-3.6-4.33-3.6-.64,0,1.36,2.13,4,.85,4-2.5,0-2.42-1.69-4.44-1.69-2.35,0-1.8,3-4.66,3a13.45,13.45,0,0,0-.21,3.39,4.48,4.48,0,0,1-2.09,0c-.73-.2-.71-.62-1.51-.62-1.1,0-1,2.36-1.26,3.39a18.73,18.73,0,0,1-2.33.21c-.27-1.27.9-2.54-1.27-2.54s-1.62,2.3-5.55-1.64c-2.39-2.39-2.69-2.61-5.75-2.05-1.4.26-3.61-.13-4.06,1.66-.07.29-.29,2.41-.3,2.66-1.14.27-5.06.52-6.08,1.11C31,92,31.05,94.11,29.58,95.73c-.67.74-.64.69-1.65.45.8-1.19.63-1.06.63-2.53a2.24,2.24,0,0,0-.63-1.49c-3,0-3.54-.68-5.45-2.59-1.36-1.35-2.75-2.95-4.75-3.51s-2.64,1.09-6.15,1.61c-3.19.47-5.44-.44-5.44,3.44,0,1.19,2,2.72-.85,3-.58-1.22,0-3.39-1.9-3.39C1.34,90.68,0,95.33,0,97c0,1.35-.06,1.79,1.06,2.54,0,6.09-1,5.92,4,5.92,1.59,0,2.62-.42,4.23-.42,1.32,0-.2,1.1,3.75,1.75,3.14.52,2.67-.27,4.71-.27,1.06,0,1.93,1.35,4.61,1.2,4.06-.23,2-.15,3.73-.7,1.88-.62,4.26,1.45,4.57,3.09a6.77,6.77,0,0,0,.83,2.13c1.21,2.72,1.9,1.3,4.23,1.25,6-.13,4-.26,6.4-2.7.88-.91,3.32-.69,4.83-1.3A10.34,10.34,0,0,1,52,108.45c0,6.67,1.69,2.53,5.5,5.08-.21,2.51-1.57,3.77,1.65,4.52,1.54.35,3.67-2,5.33-2,1.28,0,1.74,2,2.88,2.42s1-.29,1.58,1c.42.87.62,1.5,1.68,1.5.64,0,.55-.22.6-.77.07-.83-.12.34,0-.61.36-3,2.7-1.94,4.53-3,1.68-1,1.38.17,2.49.17s1-1.69,1.7-1.69c.92,0,2.46,1.54,5.83,2,2.38.33,4.51-.91,6.17-1.64s2.9-1.89,5.14-2.9c3.22-1.46,3-.85,6.76-.85a4.62,4.62,0,0,0,3.09-.93c.5-.6.66-2.17,1-3.07.4-1.16.56-1.82-.39-2.84-1.33-1.43-3.17-1.83-1-3.6,2.37-1.91,0-2.65,1.71-4,.5-.39.18,0,.54-.52s.56-2.61,1.41-2.61c2.73,0,1,.65,3.35-1.11,1.2-.92,2.23.69,3.63.69s4.1-5.29,5.71-5.29c.88,0,1.66.56,2.18-.58.37-.81-.11-1.33,2-1.33a6.28,6.28,0,0,1,1.7.45c2.2.56,1.62-1.05.35-2.29-.84-.82-.57-1.09-.57-2.6,1.42-.12.34-.74,1.69-.24,2.69,1,3,2.55,6.61,2,2.59-.41,0-.92,2.67-3,.77-.62,1.53-1.1,2.33-1.69a7.85,7.85,0,0,1,2.57-1.45c.25.37.49.51.64.85.66,1.42-1.15.33,1.85,3.64l.61.87a.61.61,0,0,0,.07.14c-.36.54-2.65,3.16-.09,4.12a10.31,10.31,0,0,0,5.59.11c0-2.6-.16-2.15,2.21-2.45,1.71-.22,3.11.13,3.51-1.36h1.48c.92,1.38,2,1.34,3.73.56,2.36-1.09,1.17-2.89,2-4.3.57-.92,1.71-1,2.2-2,.67-1.45-.58-1.89-.58-3.31,0-2.86,6-10.36,8.68-10.36.63,0,1.05.84,1.69.84h3c1.06,0,1.78-1,2.95-.43s1.71,1.07,3.18,1.07c3.09,0,2.94-3.17,6.35-3.17,2.87,0,7.61,1.17,9-.93,1.24-1.86.48-2.68,1.29-3.57.65-.72,2.39-2,2.39-3.12,0-2.48-.92-2.53,2.54-4.23a17.84,17.84,0,0,0,2.29-1.31c1.33-.88.89-.75,1.52-2.08,2.31.06,1.44.79,5-2,1.14-.89,2.05-1.62,3.2-2.51,1.43-1.12,2-.44,3.4-1.89s1.42-1.75,3.22-2.7c1,.68,1.64,1.69,3.17,1.69,1,0,1.15-.57,1.65-1.11,3.37-3.61,2.8-7.38,7.24-7.35,1.75,0,3.78-.43,5.5-.43,0-.17,1.63-5.5-.21-5.5-2.33,0-1.68,1.54-4.69.46a13.52,13.52,0,0,1-2.88-2.2c-1.68-1.49-3.69-1.22-6.18-1.43-1.34-.12-.81-.63-3.6-.63-1.64,0-2.25,3-6.09-1.74a14.31,14.31,0,0,0-.94-1.18c-.69-.68-1.57-1.23-2.23-2-1.37-1.63,0-1.77,0-2.9a1.17,1.17,0,0,0-1.22-1.21c-1.38.17-1,1.7-4,.68-.7-.25-.45-.37-1.27-.65s-2.82.12-3.92.12c-1.9,0-2.25-2.75-3.8-2.75-1.22,0-1.33.6-2.19,1-1.11.5-5.88.56-7.21.17s-1.34-1.14-3.72.12l-.3-.34-.19-.23c-1.1-1.1-2.49-.06-4-.06-.6,0-.82-1.06-3.6-1.06-2.27,0-2.38.62-4.23-.63-2.47-1.67-3.57-3.24-6-.91s-4.41.74-6.52,1.94c-1,.59-.42.66-1.89.66-2.34,0-3-1.48-5.07-1.48-1.86,0-7.57-.46-9.21.54-1.09.66.4,1.28-1.16,2.2-1.11.66-3.72.48-4.94.29l-1.65-.47C141,11.2,137.4,11,135,10.22a13.57,13.57,0,0,1-2.83-1.4c-1.76-1-4.5-1.13-6.4-2.05-1.45-.71-1.83-2.34-3-3.32s-1.32.8-3.71-1.36C113.6-2.83,116.06,2.47,114,2.47Z"/><path class="cls-1" d="M106.8,38a24.83,24.83,0,0,0-2.89,3.21c-1.5,2.31,2.16,2.73,2.37,2.82a5,5,0,0,1,2.78,3.3c.13,1.21-.17,1.69.67,2.36,2,1.58,2.62-.19,4.72.06,1.22.15,1.68,1.1,5.19.79,1.7-.15,1.44-.15,2.13-1,1.19-1.51,3.36-.38,3.12,1.57a9.53,9.53,0,0,1-.88,2.39c-.51,1.28,0,1.34.33,2.27a5,5,0,0,1-3,2.41c-1.9.79-3.07.09-4.79.9-.23.89.41,1.24.24,2.63-1.9,1.11-3-.08-5.15.34-.76,1.94.59,1.58.09,3s-1.44,1.15-1.85,2.36l6.5,7.85c3.34,3.62,3.52,2,6,2.89l.32,1.73c.72.11,1.74,0,2.23.16,1,.34.23,1.17,3.34,1.31,1.11.05.8-.5,1.95-.27,2.87.56,1.92,2.74,7.26,1.9.33-1.24.2-1.41,1.09-2.26a36.87,36.87,0,0,1,4.07-2.92c.67-.46,1.53-1.2,2.41-.56s.74,1.13.86,2.22.89,1.45,1.47,2c2.28,2.23-1.22,3.07-.08,4.67.27.3,0,.1.37.32,1.18.7,3.56.52,4.8.31.13-1.07-.08-1.94,1-2.35a24.74,24.74,0,0,1,3.28-.36c2-.22,1.18-.75,2.21-1.16,1.45-.58,2,.35,2.42,1a4.18,4.18,0,0,0,3.35-1.11c.73-.93.07-2.58,1-3.66.64-.75,2.24-1,2.09-2.37-.12-1.1-1.25-1.57-.44-3.8,1.15-3.18,5.62-8.91,8.81-9.6,1.39-.31.75.92,3.21,1,1.85,0,2.85-.71,4-.65,1.73.1,3.45,3,6.36-.27,3.38-3.79,8.76-.15,11.61-1.72.55-.31,3-3.48-.17-3.14-1.86.2-.43,1.32-4,1-1.31-.11-2.07-.31-3.12.3a2.28,2.28,0,0,1-2.82-.06c-.48-.88.27-1.18.09-2.17a5,5,0,0,0-3.9,0c-.62.31-1,1.73-3.38.89.06-1.39,2.47-1.27-.43-3.38-3.08-2.25,1.5-2.58-.49-5.64-2.14.24-6.88,2.34-8.8,1.16a2.21,2.21,0,0,1-2.44.76c-.54-.1-.78-.28-1.27-.41s-.85-.07-1.49-.21c-1.68-2.38.47-3.44-.11-4.77-1.52-1.29-3.25,1.73-5.43-.43a3.27,3.27,0,0,1,.58-3s3.21.34,3.15-1.89c-2.16-1.13-5.19.26-7.05-1.6a3.62,3.62,0,0,0-4.63-.59,1.5,1.5,0,0,1-1.79-.45c-.76-1,.63-1.93.89-2.39,1.14-2-2.48-2.3-2.39-5.12,0-1.24.94-2.11.43-3.18-1.23-1-1.41.68-3.84,0A4.58,4.58,0,0,1,146,25.11c-2,.29-2.53,1.24-4-.41-2.24,1-10.61.67-13.77.58-6.68-.21-3.78-.82-5.94-1.21-1.18-.21-2.42.23-3.59.1C117,24,117.55,23,116.14,22.76c-1.18,1.39.31,2.37-2.1,2.4-3.33,0-5.8-2.18-6.65.92a4.39,4.39,0,0,1-.68,1.65,1.91,1.91,0,0,0-.23,1.95c.38,1.32,1.45,1.37,2.35,2.1s.4.65.68,1.47,3.48,2.23,1.35,4.13C109.72,38.39,108.34,38.07,106.8,38Z"/><path class="cls-1" d="M146.49,24.81c3.82,4.54,4.65.74,6.33,1.89a1.91,1.91,0,0,1,.5,2.36c-1,2.87,0,2.88,1.45,4.38,2.16,2.25-.59,2.69-.46,4.48,2.21.41,1.31-.88,3.45-.5a5.07,5.07,0,0,1,2.92,1.33c1.59,1.55,5.26.31,7.1,1.58.49.6.11,3.09-3.43,2.86-.2.87-.89,2.46.9,2.61,1.36.12,2.64-1.26,3.88-.49,1.72,1.07-.74,2.66.22,4.84.06,0,.15,0,.18.06.11.23.15,0,1.07.22,3.5.79,1.89.79,3.45-.55,1.22.19.18.41,1.74.5a8.91,8.91,0,0,0,2.24-.21c1.19-.28,2.49-.62,3.7-.94s2.12-.54,2.46,1.14c.39,1.87-1,2.07-1,3.5,1.13,1.76,3.36,1.13,1.79,4.36,2.29-.27.72-1,3.28-1.4a5.42,5.42,0,0,1,3.67.32c.15,1.2-.3,1.34-.21,2.35,3.28.76-.15-1,5.65-.52,1.73.13,1.54.11,2.59-.62s1.63-.35,2.91-.43a21,21,0,0,0,2.57-2.76c.82-1.77-1.23-2.16.92-3.94,1.26-1,4-2.1,4.88-2.95s.19-1.08,1.17-1.64c1.2-.5,1.17.5,2.88-.66s5.4-4.4,6.49-4.69c2.6-.7,1.62-1.34,4.17-3.26s2,1.34,5.07,1a32.68,32.68,0,0,0,2.33-3.13c4.08-6.68,2.56-5,11-5.71.5-2,.8-1.88.41-4.28-2,.07-1.49,1.37-4.43.62-1.51-.39-2.46-1.55-3.39-2.32-2.68-2.24-3.8-.8-6.72-1.55-1.07-.28-.91-.64-2.42-.55-1.84.11-3.12,3.21-7.26-2.23-1-1.35-1.85-1.59-2.82-2.69-1.71-1.95-.19-2.17-.44-4-1.65.13-.92,1.37-3.6.86-1.57-.3-1.95-1-3.34-.93s-2.91.47-4-.2-1-1.68-2.45-2.32c-1.9.22-1,1-3.38,1.17-6,.51-7-.75-8-.65s-1,.58-1.7.56-.78-.43-1.28-.91c-1.32-.13-1.27.24-2.35.39-1.4.2-1.32-.24-2.08-.67-1.14-.65-3.93-.35-5.3-.19-.87,1.11-1,3.15-2.54,3.43-1.21.22-1.76-.5-2.8.09-1.23.71-.18.74-2.48.8-5.3.11-6.9-.49-10.19,2a24.71,24.71,0,0,1-3.52,2.6c-.67.24-.63.07-1.25.24a5.07,5.07,0,0,0-1,.49,3.47,3.47,0,0,1-2.76.17c-2.94-1-1.65,1.39-3.54,2.05-.75.26-.27-.16-1.09.34A17.63,17.63,0,0,0,146.49,24.81Z"/><path class="cls-1" d="M54.37,28c-.68.8-.23,1.09-1.21,1.87-1.36.32-1.1-.36-2.18.76-.53.54-1,1.06-1.46,1.49-1.72,1.53-5.11.34-5.22,1.09L44,34.35a2.2,2.2,0,0,1-.67,1.25c-1,1.14-1.35.52-2.84.76S37,38.82,36.26,39.57a11.41,11.41,0,0,1-4.36,3c-6.85,2.91-5,3.6-1.46,5.14,1.29.56,2.85,1.53,4.48,1.31,1.92-.25,1.45-2.15,3.71-.39a5.14,5.14,0,0,1,1.75,4c-.72.84-1,.4-1,2.09,3-.23,1.81,1.69,4.26,2.49,3.09,1,3.91-.37,6.36-.16.42,1.31-.38,1.13,1,2.09a3.79,3.79,0,0,0,2.23,1c.3-1.11-.25-1.44.42-2.54,2.57-4.24,3.9-2.13,4.92-3.75,1.35-2.14-.15-3.35-.19-4.84s2.25-2.84,3.45-1.94c1,1.32-.46,1.9-.18,3.14a7.22,7.22,0,0,0,2,2.28c3.28,2.61,1.74,3.47,1.29,5.85.45.2.7.08,1.2.55.3.29.33.73.9,1,1,.43,2-.25,3,.14a2.16,2.16,0,0,1,1.2,2.3c-.07,1.57-.79,1.48-1.16,2.54,3,1.36,2.29-3,4.74-1.82,2.13,1,1.68,2.22,3,4.61,1.42,2.54,1,2.8,4.48,3,1.12.09,2.39.51,3.45.19,2.11-.66,1.06-.56,2.45.55a7.23,7.23,0,0,0,4.88-1.25,2.28,2.28,0,0,0,1.11-2.12c0-1.06-.26-2,.58-2.58,1.65-.88,1.19.73,2.85-1.67,1.49,0,.76.24,1.79.43.91-.78,1.1-2.21,2.84-1.78.57,2.42-.13,2.27-1.47,3.14a8.24,8.24,0,0,0,.59,3.21c2.4-.12,3.81-5.82,6.29-5.65.92,1.1.34,2.46,1.17,3.5a3,3,0,0,0,2-1.35c.8-1.17-.24-1.19-.14-2.49.2-2.58,3.29-.91,5.42-1.36L115.77,59c1.35-1.78,5.38.23,7.88-3.15-.07-.53-.49-.58-.46-1.51a5.71,5.71,0,0,1,.64-1.86c.63-1.44,1-2.81-.92-3-1.61.79-.19,1.47-3.16,1.72a9,9,0,0,1-4.59-.53c-2.1-.92-2.34.6-4.07.33-3.43-.53-2-3.1-3.08-4.59A3.85,3.85,0,0,0,106.8,45c-1.85-1.15-2.3-.09-3.4-1.68-1.83-2.64,2.89-4.48,3.08-6.39-.44-2.13-4.81.76-8.5-2.15-1.14-.91-1.84-2.06-2.78-2.72a10.42,10.42,0,0,0-4.67-.79,3.46,3.46,0,0,1-4.45,1.44c-1.36-.55-2.47-2.14-3.62-2.93-.94-.65-1.46-.43-2.72-.39-2.11.08-2.76-2.91-4.4-.48-.57.84-.43,1.84-1,2.43-1.14,1.29-3.7.71-4.61-.3-.68-.75-.53-1-1.88-1.28-1-.18-2.2-.06-3.09-.3-2.18-.57-1.28-2.11-4.55-1.25C57.41,29,56.75,28,54.37,28Z"/><path class="cls-1" d="M98,64.45c-2,2.09-.64.88-2.49,1.51s1.31,4-3.85,5.69c-1.59.53-1.14-.1-1.91,1.27-1.47,2.59-6.4,2-7.5,4.65-.07,1.64.53.86.7,2.11-.9.94-2.34.61-5.19,1.12-3.11.55-2.82-1.54-4.3-1.92-.84,2.16,1.8,2.75.74,5.09-4.73,1-3.78-4.12-7.22.23-1.18,1.48-.89.68-2.13,1.41-.17,4.65,1.54-1.11,6.57,6.69,1.93,3-2.29,4.49,3.87,9,2,1.44,3.53,2.93.56,5.07a12.27,12.27,0,0,1-10.63,1.41c-1.54-.63-1.06-.88-3.4-1-1.85-.14-2.05,0-3.63-.81-.92-.46-2.3-1.3-3.26-.59-.06,0-2,2.41-2,2.43-.55,1.09,0,2.87.28,4,2.51.27,3.35-.08,5,1.32.22,1.56-.61,1.83-.32,3.56,1.81,1.28,2.45.4,3.49-.06,6.27-2.79,3.88.29,6.45,1.14,1.32.44,1.34-.12,2.39,2.55.39-.35.26,0,.57-1.27a5,5,0,0,1,.43-1.24,2.46,2.46,0,0,1,2.09-1.27,4.74,4.74,0,0,0,2.63-.8c1.29-.58,1.46.09,2.42.24,1.47-1.24.11-2.72,4.25-.56,3.34,1.74,7.52.74,10.32-1.3,7.8-5.7,11.8-1.91,13.53-3.81a29.25,29.25,0,0,0,1.08-3.41c.33-1.66-.74-1.89-1.67-2.68s-1.43-2-.28-3,1.57-.61,1.41-2.76.89-1,1.57-2.72c.53-1.35.46-2.19,2.16-2.22,2.92,0,1.64-.95,3.09-1.42,1.26-.41,2.18.7,3.26,1,.86-.08,3.23-3.7,4.66-4.86.82-.67,1.59-.28,2.78-.43.36-1.22.21-1.67,1.69-1.85s2.11.21,3.48.44c-.31-1.06-.9-1-1.39-1.77-.62-1-.06-1.72-.39-2.62a12.13,12.13,0,0,0-1.75-.31c-1.11-.25-.61-.33-1.24-1-2.93-.21-2.45.49-2.91-2-1.2-.24-1.92.15-3.12-.5a14.94,14.94,0,0,1-3-2.52c-.36-.37-.52-.68-.85-1.06l-5.88-7c-.47-.48-.63-.14-1-.91-.51-.93-.08-2.11-.8-2.92-2.1,1-3.4,6.24-6.33,5.58a10.13,10.13,0,0,1-.73-2.72c-.2-1.69.51-1.52,1.49-2.12l.17-1.51c-1.23.27-1,.71-1.66,1.46C99.24,65.42,98.87,64.62,98,64.45Z"/><path class="cls-1" d="M41.2,86a8.62,8.62,0,0,0-.49,2.78c1.12.73.91-.12,1.78,1.53a5.54,5.54,0,0,1,.91,2.5c.92.11,1.31-.14,1.43.65s-.35.79-.79,1.27c3.51,4.42-.2,4.33-1.61,3-1.67,1.81-3.78,0-1.22-1.58-.34-.54-.57-.62-.41-1.13l.14-.29.1-.16s.07-.1.1-.16c-.89-.45-.84-.81-.78-2.07.09-1.91-.15-1-.52-2.42-1.59.24-3.23.51-4.74.72A5.13,5.13,0,0,0,32,92.87C30.39,95.08,30.52,97,28.4,97c-.25,0-2.83,1-1.68-.7a6,6,0,0,1,.77-.74A2.21,2.21,0,0,0,27.71,93c-.48-.51-2.29.56-4.95-2.23-5.81-6.11-6-3.92-8-3.29-.49.15-1,.26-1.49.41-2.44.72-5.53.52-6.15,1.29-1,1.94.51,2.47.23,4.48A2.43,2.43,0,0,1,5,94.58c-1.15-1-.41-2-1.12-3.15C2,91.2.77,94.69.62,97c-.16,2.63,1,1,1.17,3.36a40.89,40.89,0,0,0,.15,4.42c3.1.57,5.63-.67,7.36-.4,1.44.23,1.95,2.51,6.14,2,2.53-.33,1.24-1.24,4.14.25,1.25.64,3.46.52,5,.29.87-.13,1.69-1.25,4.15-.09a5.73,5.73,0,0,1,2.63,2.7,9.33,9.33,0,0,0,1.48,3.74,14,14,0,0,0,2.53-.38c1-.08,2,0,3.06-.12,2.57-.26,2.09-1.39,3.5-2.63,1.18-1.05,3.47-.65,4.89-1.25a10.62,10.62,0,0,1,5.33-1.08L54,105.37c.93-1.09,1.56-1.15,3.1-.54,1.27.51,1.65,1.06,3.19,1.23,1.24.13,2.88,0,3.93.55a11.59,11.59,0,0,0,7.47,1,14.41,14.41,0,0,0,3.12-1.35,3.17,3.17,0,0,0,2-2.71c-.13-.43-3.49-3-4.48-4-2.26-2.4-.31-4.76-1.34-6.71a8.62,8.62,0,0,0-4.2-4.26c-2.18-.88-1.56-.11-3,.24s-2.41-.36-3.3-.73c-.42,1-.08,2.33-.78,3s-3.36,1.23-3.53-.47a14.37,14.37,0,0,1,.2-1.51c-3,0-2.51,2.71-7.16-2.2C46.92,84.55,46,85.13,41.2,86Z"/><path class="cls-1" d="M110.12,2.37c-.25,1,.11,1.4-.48,2.28C108.88,5.28,107,4.06,104,7c-2.29,2.27-.36,3.67-1.82,6-1,1.57-2.78,3.12-2.58,5.72a2.52,2.52,0,0,0,1.7,2.38,17.46,17.46,0,0,1,3,1.18c.2,1.55-.56,3.33-1.8,3.7-2.1.63-4.16-.45-4.63-.35s-1.13.78-1.64,1.08c-.94.55-1.45.05-2.4.34-1.1.33-1.35,1.56-1.27,2.59s0,.48.29,1c.55,1.17,1.25-.77,3.66,1.78,5.1,5.38,7.25,1.95,9.7,3.21.66.34.73,1,1.07,1.71,3.42.4,4.89-1,2.39-3.06-1.49-1.21-.26-1.19-1.24-2.14-.46-.45-1.39-.68-2-1.39a3.09,3.09,0,0,1-.56-2.68c.13-.49.67-1.32,1-2.38,1.18-3.77,4.6-.66,8-1.33.49-1.33-.07-1.59,1.27-2.31,1.81.29,1.2,1.36,2.76,1.48,1.34.1,2.75-.45,4,0,1.69.68.83.82,3.42,1,3.15.16,13.39.46,15.43-.58.21.11,2.73,2.23,4.84-.21,3.45-4,2.39-.87,3.75-3,2-3.21,1.94-.76,4.46-1.06,1-.12,1.49-.73,2.44-.93s.44.13,1.3-.4c5.41-3.3,2.18-4,11.35-4.32a28.54,28.54,0,0,0,3.28-.14c1-.24.78-1,2.42-.92,1.19.08,2.32,1.09,3.51-2.94a18.1,18.1,0,0,0-4.35-2.83c-1.88.61-2.17,2.4-4.76,2.75-1,.15-2.41-.05-3.39.37-.56.23-2.05,2-5.73-.16-1.68-1-9.78-.61-10.45-.13-1,.75,1.11,3.14-6.34,2.68-2.27-.15-1.35-.38-2.42-.62-.74-.16-1.88-.15-2.71-.3a19.21,19.21,0,0,1-7.09-2.45c-3.39-1.82-6-.52-8.36-4.11-1.95-3-1.71-.14-3.85-1.87A12.91,12.91,0,0,0,115.93.76l-.53,1.6a2.11,2.11,0,0,1-1.57.79A6.39,6.39,0,0,1,111.56,3C110.55,2.71,110.89,2.27,110.12,2.37Z"/><path class="cls-1" d="M50.45,17.12c-.06,1.77.81,1.43.35,2.94-1.3.51-1.19-.18-2.07-.16-1.06,1.35,0,1.77-1.2,2.81a2.2,2.2,0,0,0-1.06,2.67c2.25,1,1.91-2.7,5.58.35a6.35,6.35,0,0,0,2.38,1.61c7.18,1.22,4.53-.1,7.35,0,1.29,0,1.85,1,2.89,1.45s2.4.2,3.56.47c1.65.38,1.43,1.17,2.41,1.81a3.09,3.09,0,0,0,3.2,0s1.58-5.38,4-3.21c1.46,1.29.61,1,3,.87,2.07-.1,3.52,2.32,5,3.22a3.22,3.22,0,0,0,3.32,0c1.19-.92.18-1.48,2.88-1.27-.31-5.32,2.46-4.12,3.35-4.28.62-.11,1.19-.74,1.75-1.08,1.29-.79,1.9.35,4,.25,1.51-.07,2.48-.54,2.6-2.81a5.56,5.56,0,0,0-2.18-1c-.82,1.12-.28,1.92-2.75,1.63s-1.61-.7-2.43-2.24c-.94-1.79-5.43-.42-7.62-1.7-2-1.16-2.62-3.57-5.6-3.81s-3.9-2.42-6.56-2.64c-1.33-.12-3-.08-4.21-.26C70.48,12.5,69,8.9,66,11.14c-3.45,2.58-6,.15-7.05.6-.81.35-.23.8-1.41.89-2.19.17-1.28-1.21-4.45,2.53A5.16,5.16,0,0,1,50.45,17.12Z"/></g></g></svg>