<svg xmlns="http://www.w3.org/2000/svg" viewBox="0 0 59.32 101.94"><defs><style>.cls-1{fill:#ecf7fb;}.cls-1,.cls-10,.cls-2,.cls-3,.cls-4,.cls-5,.cls-6,.cls-7,.cls-8,.cls-9{fill-rule:evenodd;}.cls-2{fill:#cb3728;}.cls-3{fill:#e55840;}.cls-4{fill:#e4f3f6;}.cls-5,.cls-6{fill:#fff;}.cls-5{opacity:0.13;}.cls-7{fill:#ececed;}.cls-8{fill:#f28e00;}.cls-9{fill:#f7a53f;}.cls-10{fill:#f7ac4f;}</style></defs><title>Asset 7</title><g id="Layer_2" data-name="Layer 2"><g id="_1" data-name="1"><path class="cls-1" d="M51.09,22.78,34.23,15.27a1.14,1.14,0,0,0-1.5.58L.9,87.36a10.36,10.36,0,1,0,18.93,8.43L51.67,24.28A1.14,1.14,0,0,0,51.09,22.78Z"/><path class="cls-2" d="M42.8,41.41,25.94,33.9a1.14,1.14,0,0,0-1.5.58L.9,87.36a10.36,10.36,0,1,0,18.93,8.43L43.37,42.9A1.12,1.12,0,0,0,42.8,41.41Z"/><path class="cls-3" d="M42.13,41.11,26.61,34.2,3.24,86.68a7.57,7.57,0,0,0,3.83,10l1.7.76a7.56,7.56,0,0,0,10-3.84Z"/><path class="cls-2" d="M44,41.48c.44-1-3.44-3.66-8.67-6s-9.8-3.41-10.24-2.43,3.45,3.66,8.67,6S43.57,42.45,44,41.48Z"/><path class="cls-4" d="M49.84,23.78,18.13,95A8.5,8.5,0,0,1,2.6,88.12L34.32,16.87l15.52,6.91Zm2.47-.94h0L33.37,14.41.9,87.36a10.36,10.36,0,1,0,18.93,8.43Z"/><path class="cls-5" d="M43.78,19.52l-7.57-3.37L.83,95.62A10.35,10.35,0,0,0,6.15,101h0a10,10,0,0,0,1.15.43Z"/><path class="cls-5" d="M9.16,101.86a10,10,0,0,0,2.19,0l36-80.78-1.84-.82Z"/><path class="cls-6" d="M30.15,47.12c-5.2-2.32-9.08-5-8.68-6h0L10,67h0c-.42,1,3.46,3.66,8.68,6s9.8,3.42,10.25,2.45h0L40.4,49.57h0C39.93,50.53,35.36,49.44,30.15,47.12Z"/><path class="cls-7" d="M40.4,49.57a.55.55,0,0,1-.35.26c-.65,1.37-3.26,6.61-3.56,7.16a55.19,55.19,0,0,1-4.35,7.13c-2.64,3.52-6.12,6.52-10.63,7a13.73,13.73,0,0,1-6.59-.88,12,12,0,0,1-4.86-3.51L10,67h0c-.42,1,3.46,3.66,8.68,6s9.8,3.42,10.25,2.45h0L40.4,49.57Z"/><path class="cls-8" d="M59.28,9.64,38.51.39,31.72,15.65l0,.1a.16.16,0,0,0,0,.07c-.48,1.07,3.78,4,9.52,6.57s10.77,3.75,11.25,2.67c0,0,0,0,0-.08a.26.26,0,0,0,.05-.09Z"/><path class="cls-9" d="M59.28,9.64c.48-1.08-3.78-4-9.52-6.57S39-.68,38.51.39,42.29,4.41,48,7,58.8,10.72,59.28,9.64Z"/><path class="cls-10" d="M57.1,8.4c.32-.72-3.05-2.91-7.53-4.9s-8.36-3-8.68-2.32S44,4.09,48.42,6.08,56.79,9.11,57.1,8.4Z"/><path class="cls-8" d="M43.23,3.39a45.09,45.09,0,0,0,5.19,2.69,44.88,44.88,0,0,0,5.49,2.06l.43-1L43.67,2.41Z"/><path class="cls-9" d="M54.34,7.16c.21-.47-2-1.91-5-3.22s-5.51-2-5.72-1.53,2,1.92,5,3.23S54.13,7.63,54.34,7.16Z"/><path class="cls-9" d="M52.44,25a.41.41,0,0,0,.05-.09l.66-1.47-.65.07a.36.36,0,0,1-.36-.5l5.3-11.9a.38.38,0,0,0-.2-.51.39.39,0,0,0-.51.2L51.22,23.17a.36.36,0,0,1-.38.21l-.17,0a.36.36,0,0,1-.27-.5l5.4-12.12a.38.38,0,0,0-.2-.51.39.39,0,0,0-.51.19l-5.52,12.4a.34.34,0,0,1-.41.2L49,23a.36.36,0,0,1-.24-.49l5.42-12.17A.38.38,0,0,0,54,9.8a.39.39,0,0,0-.51.19L48,22.35a.36.36,0,0,1-.43.2l-.15-.05a.36.36,0,0,1-.22-.49L52.56,9.89a.39.39,0,0,0-.19-.51.38.38,0,0,0-.51.2L46.41,21.82A.35.35,0,0,1,46,22L45.81,22a.36.36,0,0,1-.21-.48L51.06,9.22a.39.39,0,0,0-.2-.51.38.38,0,0,0-.51.2L44.86,21.24a.37.37,0,0,1-.46.19l-.15-.06a.36.36,0,0,1-.19-.48L49.55,8.55A.39.39,0,0,0,49.36,8a.39.39,0,0,0-.52.2l-5.5,12.37a.37.37,0,0,1-.47.19l-.15-.07a.36.36,0,0,1-.18-.47L48.05,7.88a.4.4,0,0,0-.2-.51.38.38,0,0,0-.51.2L41.83,19.94a.35.35,0,0,1-.48.18l-.14-.06a.36.36,0,0,1-.18-.47L46.54,7.21a.39.39,0,0,0-.71-.31L40.34,19.23a.35.35,0,0,1-.48.18l-.15-.07a.36.36,0,0,1-.16-.47L45,6.54A.39.39,0,0,0,44.84,6a.38.38,0,0,0-.51.2L38.87,18.48a.35.35,0,0,1-.49.17l-.14-.08a.35.35,0,0,1-.16-.46L43.53,5.87a.39.39,0,1,0-.71-.31L37.43,17.67a.36.36,0,0,1-.51.17l-.14-.08a.36.36,0,0,1-.14-.46L42.14,5a.39.39,0,0,0-.71-.32L36,16.8a.36.36,0,0,1-.52.16l-.14-.09a.38.38,0,0,1-.13-.45L40.74,4a.39.39,0,0,0-.19-.51.39.39,0,0,0-.51.2l-5.4,12.12a.36.36,0,0,1-.55.14L34,15.86a.34.34,0,0,1-.1-.42L39.37,3.05a.38.38,0,1,0-.7-.31l-5.3,11.89a.36.36,0,0,1-.61.07c-.25-.34-.34-.62-.24-.84a.21.21,0,0,1,0-.06l0-.1-.87,1.94,0,.11,0,.06c-.48,1.08,3.78,4,9.52,6.57s10.77,3.75,11.25,2.68A.31.31,0,0,0,52.44,25Z"/></g></g></svg>