<svg xmlns="http://www.w3.org/2000/svg" viewBox="0 0 18.63 88.04"><defs><style>.cls-1{font-size:80.99px;fill:#98c55c;font-family:PFBeauSansPro-Bold, PFBeauSansPro Bold;font-weight:700;}.cls-2{fill:none;stroke:#6db749;stroke-miterlimit:22.93;stroke-width:0.57px;fill-rule:evenodd;}</style></defs><title>Asset 9</title><g id="Layer_2" data-name="Layer 2"><g id="_1" data-name="1"><text class="cls-1" transform="translate(0.01 67.79)">!</text><path class="cls-2" d="M11.78,46.89c0,.65-.14,1.07-.44,1.25a2.72,2.72,0,0,1-1.42.29H5.06a2.68,2.68,0,0,1-1.5-.29A1.62,1.62,0,0,1,3.12,47L1.34,11.82a1.51,1.51,0,0,1,.32-1.25,2,2,0,0,1,1.54-.45h8.58c.87,0,1.41.18,1.62.53a1.75,1.75,0,0,1,.25,1.17L11.78,46.89Zm3.08,13.69a6.74,6.74,0,0,1-2.1,5,7.17,7.17,0,0,1-5.19,2.06,7.18,7.18,0,0,1-5.18-2,6.71,6.71,0,0,1-2.11-5,6.79,6.79,0,0,1,.57-2.76A6.52,6.52,0,0,1,2.43,55.6a7.93,7.93,0,0,1,2.35-1.5,7,7,0,0,1,2.79-.57,7.26,7.26,0,0,1,5.19,2A6.71,6.71,0,0,1,14.86,60.58Z"/></g></g></svg>