<svg xmlns="http://www.w3.org/2000/svg" viewBox="0 0 18.27 19.08"><defs><style>.cls-1,.cls-2{fill:#3E3E3F;}.cls-2{fill-rule:evenodd;}</style></defs><title>Asset 8</title><g id="Layer_2" data-name="Layer 2"><g id="_1" data-name="1"><rect class="cls-1" x="5.84" y="1.41" width="1.13" height="4.26" transform="translate(-0.76 2.05) rotate(-17.2)"/><path class="cls-2" d="M7,.45C6.88,0,6.14-.13,5.35.12S4,.91,4.15,1.33s.88.57,1.67.33S7.15.87,7,.45Z"/><path class="cls-2" d="M6.31.27c0-.15-.46-.16-.92,0s-.8.38-.75.53.46.16.92,0S6.35.42,6.31.27Z"/><rect class="cls-1" x="3.63" y="15.01" width="4.26" height="1.13" transform="translate(-10.85 15.26) rotate(-68.64)"/><path class="cls-2" d="M3.35,17.61c-.16.41.33,1,1.1,1.29s1.53.21,1.69-.2-.33-1-1.1-1.3S3.51,17.19,3.35,17.61Z"/><path class="cls-2" d="M3.79,18.19c0,.15.26.41.71.58s.87.2.92.06-.26-.41-.71-.59S3.85,18,3.79,18.19Z"/><rect class="cls-1" x="14.18" y="9.3" width="1.13" height="4.26" transform="translate(-0.73 21.84) rotate(-71.7)"/><path class="cls-2" d="M16.9,13.72c.43.14,1-.38,1.24-1.17s.13-1.54-.3-1.68-1,.39-1.23,1.17S16.48,13.58,16.9,13.72Z"/><path class="cls-2" d="M17.46,13.25c.15.05.39-.29.55-.74s.15-.88,0-.92-.39.28-.54.74S17.31,13.2,17.46,13.25Z"/><rect class="cls-1" x="10.44" y="4.55" width="3.52" height="0.93" transform="translate(0.43 10.97) rotate(-49.18)"/><path class="cls-2" d="M14.63,4.1c.25-.28,0-.87-.5-1.32S13,2.2,12.76,2.48s0,.86.5,1.31S14.39,4.37,14.63,4.1Z"/><path class="cls-2" d="M14.45,3.52c.09-.1-.09-.39-.39-.65s-.62-.39-.7-.29.09.39.39.65S14.37,3.62,14.45,3.52Z"/><rect class="cls-1" x="1.94" y="7.39" width="0.74" height="2.79" transform="translate(-6.75 8.31) rotate(-72.29)"/><path class="cls-2" d="M.88,7.29c-.27-.09-.63.26-.8.78S0,9.07.29,9.16s.63-.26.8-.77S1.16,7.38.88,7.29Z"/><path class="cls-2" d="M.52,7.61c-.1,0-.25.18-.35.48s-.1.57,0,.61.26-.19.35-.49S.62,7.64.52,7.61Z"/><rect class="cls-1" x="10.67" y="13.65" width="0.74" height="2.79" transform="translate(-5.43 6.28) rotate(-25.7)"/><path class="cls-2" d="M10.94,17.1c.13.26.62.28,1.11,0s.78-.64.66-.9-.63-.29-1.11-.05S10.81,16.84,10.94,17.1Z"/><path class="cls-2" d="M11.42,17.15c0,.09.31.05.59-.08s.48-.33.44-.42-.31-.06-.6.08S11.37,17.05,11.42,17.15Z"/><rect class="cls-1" x="2.38" y="12.57" width="2.21" height="0.59" transform="translate(-5.67 3.18) rotate(-28.24)"/><path class="cls-2" d="M1.86,12.85c-.21.11-.21.51,0,.89s.53.59.73.48.2-.5,0-.88S2.06,12.74,1.86,12.85Z"/><path class="cls-2" d="M1.83,13.23c-.07,0,0,.25.09.47s.27.37.34.33,0-.25-.08-.47S1.91,13.19,1.83,13.23Z"/><path class="cls-2" d="M13.15,8.25a5,5,0,1,0-3.33,6.32A5.06,5.06,0,0,0,13.15,8.25Z"/><path class="cls-2" d="M13,8.31a4.86,4.86,0,1,0-3.21,6.08A4.87,4.87,0,0,0,13,8.31Z"/><path class="cls-2" d="M6.89,5.11a4.85,4.85,0,0,0-.78,9,2.17,2.17,0,0,0,.63-.24c.52-.3.52-.89.48-1.42a2.16,2.16,0,0,1,0-.76,1.2,1.2,0,0,1,1-.72,2.29,2.29,0,0,0,1-.4A1.47,1.47,0,0,0,9.76,9C9.6,8.36,9,8.16,8.47,7.82a.67.67,0,0,1,.1-1.22c.16-.07.34-.12.5-.2a1.82,1.82,0,0,0,.75-.65,1.86,1.86,0,0,0,.24-.54A4.84,4.84,0,0,0,6.89,5.11Z"/><path class="cls-2" d="M11.29,7.65c-.13-.1-.28-.18-.41-.29a.49.49,0,0,1-.1-.6.75.75,0,0,0,0-.51c-.08-.23-.26-.49-.54-.39A.47.47,0,0,0,10,6c-.15.21-.2.5-.4.67A3.65,3.65,0,0,1,8.85,7a.2.2,0,0,0-.13.14.15.15,0,0,0,0,.15c.22.24.6.31.87.5a1.37,1.37,0,0,1,.44.57,1.72,1.72,0,0,0,.21.43A.68.68,0,0,0,11,9a.8.8,0,0,0,.57-.77A.67.67,0,0,0,11.29,7.65Z"/></g></g></svg>