<svg xmlns="http://www.w3.org/2000/svg" viewBox="0 0 55.38 45.78"><defs><style>.cls-1,.cls-2,.cls-3{fill:none;}.cls-1,.cls-2{stroke:#ececed;stroke-miterlimit:10;}.cls-1,.cls-3{fill-rule:evenodd;}.cls-3{stroke:#98c55c;stroke-linecap:round;stroke-linejoin:round;}</style></defs><title>Asset 6</title><g id="Layer_2" data-name="Layer 2"><g id="_1" data-name="1"><polyline class="cls-1" points="52.17 3.04 30 3.04 27.7 0.71 25.35 3.04 3.77 3.04"/><path class="cls-1" d="M3.77,3a2.7,2.7,0,0,0-2.7,2.71"/><line class="cls-2" x1="1.07" y1="5.75" x2="1.07" y2="42.06"/><path class="cls-1" d="M1.07,42.06a2.71,2.71,0,0,0,2.7,2.71"/><line class="cls-2" x1="3.77" y1="44.77" x2="52.17" y2="44.77"/><path class="cls-1" d="M52.17,44.77a2.71,2.71,0,0,0,2.71-2.71"/><line class="cls-2" x1="54.88" y1="42.06" x2="54.88" y2="5.75"/><path class="cls-1" d="M54.88,5.75A2.71,2.71,0,0,0,52.17,3"/><polyline class="cls-1" points="51.6 3.55 29.43 3.55 27.14 1.22 24.78 3.55 3.21 3.55"/><path class="cls-1" d="M3.21,3.55A2.71,2.71,0,0,0,.5,6.26"/><line class="cls-2" x1="0.5" y1="6.26" x2="0.5" y2="42.57"/><path class="cls-1" d="M.5,42.57a2.71,2.71,0,0,0,2.71,2.71"/><line class="cls-2" x1="3.21" y1="45.28" x2="51.6" y2="45.28"/><path class="cls-1" d="M51.6,45.28a2.71,2.71,0,0,0,2.71-2.71"/><line class="cls-2" x1="54.31" y1="42.57" x2="54.31" y2="6.26"/><path class="cls-1" d="M54.31,6.26A2.71,2.71,0,0,0,51.6,3.55"/><polyline class="cls-3" points="17.23 3.55 24.8 3.55 27.14 1.22 29.43 3.52 37.58 3.52"/></g></g></svg>