<svg xmlns="http://www.w3.org/2000/svg" viewBox="0 0 39.66 41.41"><defs><style>.cls-1,.cls-2{fill:#fff;}.cls-2,.cls-3{fill-rule:evenodd;}.cls-3{fill:#ececed;}</style></defs><title>Asset 6</title><g id="Layer_2" data-name="Layer 2"><g id="_1" data-name="1"><rect class="cls-1" x="12.67" y="3.05" width="2.45" height="9.24" transform="translate(-1.65 4.45) rotate(-17.21)"/><path class="cls-2" d="M15.23,1C14.94,0,13.32-.27,11.6.26S8.73,2,9,2.89s1.91,1.24,3.63.71S15.51,1.89,15.23,1Z"/><path class="cls-2" d="M13.69.58c-.1-.33-1-.34-2,0S10,1.37,10.06,1.7s1,.34,2,0S13.79.9,13.69.58Z"/><rect class="cls-1" x="7.87" y="32.57" width="9.24" height="2.45" transform="translate(-23.54 33.13) rotate(-68.65)"/><path class="cls-2" d="M7.27,38.21c-.35.9.72,2.16,2.4,2.82s3.31.45,3.66-.45-.72-2.16-2.39-2.81S7.63,37.31,7.27,38.21Z"/><path class="cls-2" d="M8.23,39.48c-.12.32.57.88,1.55,1.26s1.86.44,2,.12S11.2,40,10.23,39.6,8.36,39.16,8.23,39.48Z"/><rect class="cls-1" x="30.77" y="20.18" width="2.45" height="9.24" transform="translate(-1.59 47.39) rotate(-71.7)"/><path class="cls-2" d="M36.68,29.77c.92.31,2.12-.83,2.69-2.53s.27-3.34-.64-3.64-2.12.83-2.68,2.54S35.77,29.47,36.68,29.77Z"/><path class="cls-2" d="M37.9,28.75c.32.11.85-.62,1.18-1.61s.33-1.89,0-2-.85.62-1.18,1.61S37.57,28.64,37.9,28.75Z"/><rect class="cls-1" x="22.66" y="9.88" width="7.63" height="2.03" transform="matrix(0.65, -0.76, 0.76, 0.65, 0.93, 23.81)"/><path class="cls-2" d="M31.76,8.89c.52-.6,0-1.88-1.09-2.85s-2.45-1.27-3-.66,0,1.88,1.09,2.85S31.24,9.49,31.76,8.89Z"/><path class="cls-2" d="M31.36,7.64c.19-.21-.2-.84-.85-1.41S29.17,5.38,29,5.59s.2.85.85,1.41S31.18,7.85,31.36,7.64Z"/><rect class="cls-1" x="4.21" y="16.03" width="1.61" height="6.05" transform="translate(-14.66 18.03) rotate(-72.29)"/><path class="cls-2" d="M1.92,15.83c-.61-.19-1.38.56-1.74,1.68S0,19.69.62,19.88,2,19.32,2.36,18.2,2.52,16,1.92,15.83Z"/><path class="cls-2" d="M1.13,16.51c-.21-.07-.55.4-.76,1.06s-.21,1.24,0,1.3.56-.4.77-1.06S1.34,16.58,1.13,16.51Z"/><rect class="cls-1" x="23.15" y="29.62" width="1.61" height="6.05" transform="translate(-11.79 13.62) rotate(-25.7)"/><path class="cls-2" d="M23.74,37.11c.28.57,1.36.62,2.42.11s1.69-1.39,1.42-2-1.36-.61-2.42-.1S23.47,36.54,23.74,37.11Z"/><path class="cls-2" d="M24.78,37.21c.09.2.67.13,1.29-.17s1-.7.94-.9-.67-.13-1.29.17S24.68,37,24.78,37.21Z"/><rect class="cls-1" x="5.17" y="27.27" width="4.79" height="1.27" transform="translate(-12.3 6.9) rotate(-28.24)"/><path class="cls-2" d="M4,27.9c-.44.23-.44,1.09,0,1.91s1.15,1.29,1.59,1.05.44-1.09,0-1.91S4.47,27.66,4,27.9Z"/><path class="cls-2" d="M4,28.72c-.15.08-.07.54.19,1s.59.8.74.72.08-.54-.18-1S4.14,28.63,4,28.72Z"/><path class="cls-2" d="M28.54,17.91a11,11,0,1,0-7.22,13.71A11,11,0,0,0,28.54,17.91Z"/><path class="cls-2" d="M28.14,18a10.54,10.54,0,1,0-6.95,13.18A10.53,10.53,0,0,0,28.14,18Z"/><path class="cls-3" d="M15,11.09a10.53,10.53,0,0,0-1.71,19.43A5.25,5.25,0,0,0,14.64,30c1.11-.66,1.1-1.93,1-3.09a4.77,4.77,0,0,1,0-1.64,2.6,2.6,0,0,1,2.08-1.57A5.08,5.08,0,0,0,20,22.84a3.23,3.23,0,0,0,1.21-3.23c-.35-1.47-1.65-1.91-2.79-2.64a1.45,1.45,0,0,1,.21-2.64c.36-.16.73-.27,1.08-.44a4.09,4.09,0,0,0,1.63-1.4,4,4,0,0,0,.53-1.18A10.5,10.5,0,0,0,15,11.09Z"/><path class="cls-3" d="M24.5,16.61c-.28-.22-.6-.4-.88-.65a1,1,0,0,1-.23-1.29,1.6,1.6,0,0,0-.06-1.1c-.18-.51-.56-1.07-1.18-.85a1,1,0,0,0-.47.38c-.33.44-.42,1.08-.87,1.44s-1.08.36-1.6.61a.48.48,0,0,0-.29.3.35.35,0,0,0,.11.33c.48.52,1.31.68,1.89,1.08a2.9,2.9,0,0,1,.95,1.24,3.45,3.45,0,0,0,.46.92,1.47,1.47,0,0,0,1.6.47,1.73,1.73,0,0,0,1.25-1.66A1.47,1.47,0,0,0,24.5,16.61Z"/></g></g></svg>