<svg xmlns="http://www.w3.org/2000/svg" viewBox="0 0 25.2 22.24"><defs><style>.cls-1,.cls-2{fill:#fff;}.cls-1{fill-rule:evenodd;}</style></defs><title>Asset 5</title><g id="Layer_2" data-name="Layer 2"><g id="_1" data-name="1"><path class="cls-1" d="M14.65,20.08a2.16,2.16,0,1,0-2.15,2.16A2.16,2.16,0,0,0,14.65,20.08Z"/><path class="cls-1" d="M13.55,11.24A2.45,2.45,0,1,0,11.1,13.7,2.45,2.45,0,0,0,13.55,11.24Z"/><path class="cls-1" d="M8.65,13.23a2,2,0,1,0-2,2A2,2,0,0,0,8.65,13.23Z"/><path class="cls-1" d="M15.16,8.16a.81.81,0,1,0-.8.8A.8.8,0,0,0,15.16,8.16Z"/><path class="cls-1" d="M16.26,3.42A2.16,2.16,0,1,0,14.1,5.58,2.16,2.16,0,0,0,16.26,3.42Z"/><path class="cls-1" d="M11.61,1.31A.64.64,0,0,0,11,.68a.63.63,0,1,0,0,1.26A.64.64,0,0,0,11.61,1.31Z"/><circle class="cls-2" cx="8.69" cy="0.63" r="0.63"/><path class="cls-1" d="M7,.85a.85.85,0,1,0-.84.84A.85.85,0,0,0,7,.85Z"/><path class="cls-1" d="M20.32,1.94A1.86,1.86,0,1,0,18.46,3.8,1.87,1.87,0,0,0,20.32,1.94Z"/><path class="cls-1" d="M7,16.57a.51.51,0,1,0-.51.51A.51.51,0,0,0,7,16.57Z"/><path class="cls-1" d="M9.75,17.76a1.1,1.1,0,1,0-1.1,1.09A1.1,1.1,0,0,0,9.75,17.76Z"/><path class="cls-1" d="M9.71,19.15a7.42,7.42,0,0,0-1.32-.34l1.15-1.69a2.75,2.75,0,0,0,.84.89A2.89,2.89,0,0,0,12,18l-1.57,2.41S10.31,19.4,9.71,19.15Z"/><path class="cls-1" d="M15.79,18.93a1.23,1.23,0,1,0-.66-1.61A1.22,1.22,0,0,0,15.79,18.93Z"/><path class="cls-1" d="M18.09,16.86a.64.64,0,0,0,.83-.34.63.63,0,0,0-.34-.82.62.62,0,0,0-.82.33A.63.63,0,0,0,18.09,16.86Z"/><path class="cls-1" d="M17.37,16.53a4,4,0,0,0,.46-.62l.65,1a1.57,1.57,0,0,0-.66.26,1.61,1.61,0,0,0-.34.82l-.93-1.35S17.1,16.79,17.37,16.53Z"/><path class="cls-1" d="M24.13,6a1.43,1.43,0,1,0,1,1.76A1.43,1.43,0,0,0,24.13,6Z"/><path class="cls-1" d="M22.57,2.14a1.75,1.75,0,1,0,1.24,2.15A1.75,1.75,0,0,0,22.57,2.14Z"/><path class="cls-1" d="M22.43,5.92a2.92,2.92,0,0,0-1-.47l2.28-1a1.52,1.52,0,0,0-.12,1c.13.32.67.55.67.55l-1.9.89S22.74,6.19,22.43,5.92Z"/><path class="cls-1" d="M24.13,9.8a1.15,1.15,0,0,0-1.64,0,1.16,1.16,0,1,0,1.64,0Z"/><path class="cls-1" d="M23.36,9.17a.49.49,0,0,0-.29-.59l1.22.09s-.43.22-.43.6.4.68.4.68l-1.7-.15S23.26,9.5,23.36,9.17Z"/><path class="cls-1" d="M22.42,12.82a1.05,1.05,0,1,0-.75,1.28A1,1,0,0,0,22.42,12.82Z"/><path class="cls-1" d="M22.14,11.71a1.87,1.87,0,0,0,0-.8l1.05.86a1.2,1.2,0,0,0-.67.24,1.17,1.17,0,0,0-.17.71l-1-.67S22.05,12,22.14,11.71Z"/><path class="cls-1" d="M1.05,9a1.43,1.43,0,1,0-1-1.76A1.44,1.44,0,0,0,1.05,9Z"/><path class="cls-1" d="M2.58,12.78a1.75,1.75,0,1,0-1.22-2.15A1.75,1.75,0,0,0,2.58,12.78Z"/><path class="cls-1" d="M2.76,9a2.81,2.81,0,0,0,1,.47l-2.29.95a1.56,1.56,0,0,0,.14-1A1.58,1.58,0,0,0,.9,8.91L2.81,8S2.44,8.73,2.76,9Z"/><path class="cls-1" d="M1.09,5.12a1.16,1.16,0,1,0,0-1.64A1.16,1.16,0,0,0,1.09,5.12Z"/><path class="cls-1" d="M1.85,5.74a.49.49,0,0,0,.29.6L.92,6.24s.43-.22.43-.6S1,5,1,5l1.69.16S2,5.42,1.85,5.74Z"/><path class="cls-1" d="M2.82,2.1a1,1,0,0,0,1.28.74,1,1,0,0,0,.76-1.27A1.06,1.06,0,0,0,3.57.83,1,1,0,0,0,2.82,2.1Z"/><path class="cls-1" d="M3.1,3.22A2,2,0,0,0,3,4L2,3.15a1.25,1.25,0,0,0,.67-.23,1.23,1.23,0,0,0,.18-.72l.84.66S3.19,3,3.1,3.22Z"/><path class="cls-1" d="M20.57,15.05a.51.51,0,0,0-.51-.51.51.51,0,0,0,0,1A.51.51,0,0,0,20.57,15.05Z"/></g></g></svg>