<?xml version="1.0" encoding="iso-8859-1"?>
<!-- Generator: Adobe Illustrator 19.0.0, SVG Export Plug-In . SVG Version: 6.00 Build 0)  -->
<svg fill="#fff" version="1.1" id="Capa_1" xmlns="http://www.w3.org/2000/svg" xmlns:xlink="http://www.w3.org/1999/xlink" x="0px" y="0px"
	 viewBox="0 0 512 512" style="enable-background:new 0 0 512 512;" xml:space="preserve">
<g>
	<g>
		<path d="M176.941,0v90.353h158.118V0H176.941z M320,75.294h-7.529V30.118h-15.059v45.176h-15.059V60.235h-15.059v15.059h-22.588
			V60.235h-15.059v15.059h-15.059V30.118h-15.059v45.176H192V15.059h128V75.294z"/>
	</g>
</g>
<g>
	<g>
		<path d="M193.882,105.412v15.059h5.647v335.059C199.529,486.667,224.862,512,256,512c31.139,0,56.471-25.333,56.471-56.471
			V120.471H320v-15.059H193.882z M214.588,367.059h39.529V352h-39.529v-15.059h39.529v-15.059h-39.529v-15.059h39.529v-15.059
			h-39.529v-15.059h39.529v-15.059h-39.529v-60.235h54.588V384h-54.588V367.059z M297.412,135.529h-60.235v15.059h60.235v304.941
			c0,22.834-18.578,41.412-41.412,41.412c-22.834,0-41.412-18.578-41.412-41.412v-56.471h69.647V186.353h-69.647v-65.882h82.824
			V135.529z"/>
	</g>
</g>
<g>
	<g>
		<path d="M267.294,448c0,10.38-8.444,18.824-18.824,18.824v15.059c18.682,0,33.882-15.199,33.882-33.882H267.294z"/>
	</g>
</g>
<g>
	<g>
		<rect x="267.294" y="414.118" width="15.059" height="15.059"/>
	</g>
</g>
<g>
	<g>
		<rect x="239.054" y="216.466" width="15.059" height="15.059"/>
	</g>
</g>
</svg>
